HIERARCHY
ROOT Hips
{
	OFFSET 0.00000 0.00000 0.00000
	CHANNELS 6 Xposition Yposition Zposition Zrotation Yrotation Xrotation 
	JOINT LHipJoint
	{
		OFFSET 0 0 0
		CHANNELS 3 Zrotation Yrotation Xrotation
		JOINT LeftUpLeg
		{
			OFFSET 1.54859 -1.61379 0.86856
			CHANNELS 3 Zrotation Yrotation Xrotation
			JOINT LeftLeg
			{
				OFFSET 2.25087 -6.18423 0.00000
				CHANNELS 3 Zrotation Yrotation Xrotation
				JOINT LeftFoot
				{
					OFFSET 2.40328 -6.60297 0.00000
					CHANNELS 3 Zrotation Yrotation Xrotation
					JOINT LeftToeBase
					{
						OFFSET 0.17435 -0.47901 2.02453
						CHANNELS 3 Zrotation Yrotation Xrotation
						End Site
						{
							OFFSET 0.00000 -0.00000 1.04844
						}
					}
				}
			}
		}
	}
	JOINT RHipJoint
	{
		OFFSET 0 0 0
		CHANNELS 3 Zrotation Yrotation Xrotation
		JOINT RightUpLeg
		{
			OFFSET -1.54669 -1.61379 0.86856
			CHANNELS 3 Zrotation Yrotation Xrotation
			JOINT RightLeg
			{
				OFFSET -2.28132 -6.26789 0.00000
				CHANNELS 3 Zrotation Yrotation Xrotation
				JOINT RightFoot
				{
					OFFSET -2.51636 -6.91365 0.00000
					CHANNELS 3 Zrotation Yrotation Xrotation
					JOINT RightToeBase
					{
						OFFSET -0.15124 -0.41552 2.21090
						CHANNELS 3 Zrotation Yrotation Xrotation
						End Site
						{
							OFFSET -0.00000 -0.00000 1.13399
						}
					}
				}
			}
		}
	}
	JOINT LowerBack
	{
		OFFSET 0 0 0
		CHANNELS 3 Zrotation Yrotation Xrotation
		JOINT Spine
		{
			OFFSET -0.04287 2.26161 -0.25690
			CHANNELS 3 Zrotation Yrotation Xrotation
			JOINT Spine1
			{
				OFFSET 0.02248 2.28395 -0.10140
				CHANNELS 3 Zrotation Yrotation Xrotation
				JOINT Neck
				{
					OFFSET 0 0 0
					CHANNELS 3 Zrotation Yrotation Xrotation
					JOINT Neck1
					{
						OFFSET -0.11644 1.38496 0.11345
						CHANNELS 3 Zrotation Yrotation Xrotation
						JOINT Head
						{
							OFFSET 0.29383 1.36600 0.06642
							CHANNELS 3 Zrotation Yrotation Xrotation
							End Site
							{
								OFFSET 0.11075 1.41395 -0.00294
							}
						}
					}
				}
				JOINT LeftShoulder
				{
					OFFSET 0 0 0
					CHANNELS 3 Zrotation Yrotation Xrotation
					JOINT LeftArm
					{
						OFFSET 3.51628 0.59542 -0.30346
						CHANNELS 3 Zrotation Yrotation Xrotation
						JOINT LeftForeArm
						{
							OFFSET 4.76405 -0.00000 0.00000
							CHANNELS 3 Zrotation Yrotation Xrotation
							JOINT LeftHand
							{
								OFFSET 3.13759 -0.00000 -0.00000
								CHANNELS 3 Zrotation Yrotation Xrotation
								JOINT LeftFingerBase
								{
									OFFSET 0 0 0
									CHANNELS 3 Zrotation Yrotation Xrotation
									JOINT LeftHandIndex1
									{
										OFFSET 0.73226 -0.00000 -0.00000
										CHANNELS 3 Zrotation Yrotation Xrotation
										End Site
										{
											OFFSET 0.59037 -0.00000 -0.00000
										}
									}
								}
								JOINT LThumb
								{
									OFFSET 0 0 0
									CHANNELS 3 Zrotation Yrotation Xrotation
									End Site
									{
										OFFSET 0.59938 -0.00000 0.59938
									}
								}
							}
						}
					}
				}
				JOINT RightShoulder
				{
					OFFSET 0 0 0
					CHANNELS 3 Zrotation Yrotation Xrotation
					JOINT RightArm
					{
						OFFSET -3.30990 0.84213 -0.36430
						CHANNELS 3 Zrotation Yrotation Xrotation
						JOINT RightForeArm
						{
							OFFSET -5.10161 -0.00000 -0.00000
							CHANNELS 3 Zrotation Yrotation Xrotation
							JOINT RightHand
							{
								OFFSET -3.23267 -0.00000 -0.00000
								CHANNELS 3 Zrotation Yrotation Xrotation
								JOINT RightFingerBase
								{
									OFFSET 0 0 0
									CHANNELS 3 Zrotation Yrotation Xrotation
									JOINT RightHandIndex1
									{
										OFFSET -0.70200 -0.00000 -0.00000
										CHANNELS 3 Zrotation Yrotation Xrotation
										End Site
										{
											OFFSET -0.56597 -0.00000 -0.00000
										}
									}
								}
								JOINT RThumb
								{
									OFFSET 0 0 0
									CHANNELS 3 Zrotation Yrotation Xrotation
									End Site
									{
										OFFSET -0.57461 -0.00000 0.57461
									}
								}
							}
						}
					}
				}
			}
		}
	}
}
MOTION
Frames: 9
Frame Time: .0083333
-36.3462 15.8659 0.8208 0 0 0 0 0 0 -21 0 0 0 0 0 0 0 0 0 0 0 0 0 0 21 0 0 0 0 0 0 0 0 0 0 0 0 0 0 0 0 0 0 0 0 0 0 -16 0 0 21 0 0 11 0 0 0 -8 0 0 0 0 0 0 0 0 0 0 0 0 0 0 0 0 0 0 0 0 8 0 0 0 0 0 0 0 0 0 0 0 0 0 0 0 0 0
-36.3462 15.8659 0.8208 -177.7480 67.3205 -176.1440 0.0000 0.0000 0.0000 -11.3474 -10.7752 -13.1700 2.4916 9.8226 28.4040 0.4903 -0.3945 -13.0980 0.9166 -6.1000 -17.0749 0.0000 0.0000 0.0000 20.6215 3.2115 -12.8699 -3.9933 -12.1514 36.2698 -1.1109 -16.1178 -31.3876 -0.0530 -1.4863 4.0880 -2.0673 0.3223 8.7205 1.1010 0.8390 8.8193 2.2791 0.5013 4.2661 -15.3111 -12.2591 2.8055 28.9165 -15.5265 -9.3955 11.2602 -8.1370 0.6711 -0.0000 -0.0000 0.0000 -88.0728 1.0253 49.7189 75.9559 -59.2415 -47.8685 -0.0000 0.0000 -34.4248 29.2848 39.3209 19.5639 -7.1250 0.0000 -0.0000 -10.1375 72.9660 -6.7420 -0.0000 -0.0000 0.0000 84.0048 7.4818 78.0989 -66.1673 57.7411 -39.5168 0.0000 -0.0000 -16.6279 -53.5496 37.8840 -39.7390 7.1250 -0.0000 -0.0000 -9.4291 22.0726 -12.4066
-36.3515 15.8800 0.8198 -177.7430 67.1716 -176.0690 0.0000 0.0000 0.0000 -11.3900 -10.6218 -13.6553 2.5607 9.9474 28.8065 0.4787 -0.1998 -13.0038 1.2840 -7.1807 -20.2517 0.0000 0.0000 0.0000 20.6241 3.1013 -12.8196 -3.9245 -12.0592 35.9417 -1.0784 -16.1972 -31.2595 -0.0535 -1.4927 4.1056 -2.0959 0.3308 8.8405 1.1413 0.8522 8.8476 2.3354 0.5080 4.2291 -15.1290 -12.3289 3.0443 28.9602 -15.5381 -9.8717 11.2797 -8.1835 0.4898 0.0000 0.0000 0.0000 -87.8631 0.9748 49.9582 75.9818 -59.2443 -47.8907 -0.0000 0.0000 -34.5474 29.6104 39.4108 19.8400 -7.1250 0.0000 -0.0000 -9.7622 73.1665 -6.5335 0.0000 0.0000 0.0000 84.1191 7.7608 76.7531 -65.6299 57.6325 -39.0626 0.0000 -0.0000 -11.1287 -51.4650 36.3581 -36.6624 7.1250 -0.0000 -0.0000 -8.9954 19.2655 -11.5725
-36.3583 15.8888 0.8179 -177.7810 67.0333 -176.0440 0.0000 0.0000 0.0000 -11.4071 -10.3339 -14.0869 2.6062 10.0285 29.0691 0.4652 -0.6467 -12.6753 1.0651 -6.5611 -18.4214 0.0000 0.0000 0.0000 20.5955 3.0142 -12.8377 -3.8873 -12.0089 35.7636 -1.0541 -16.2913 -31.1983 -0.0498 -1.4400 3.9604 -2.0893 0.3405 9.0474 1.1271 0.8645 8.8215 2.3130 0.5183 4.0868 -14.9905 -12.3849 3.2398 28.9988 -15.5688 -10.1441 11.2924 -8.2278 0.3794 0.0000 -0.0000 0.0000 -87.6522 0.9462 50.1403 75.6241 -59.2045 -47.5833 -0.0000 0.0000 -34.4664 29.2135 39.4497 19.5606 -7.1250 0.0000 -0.0000 -10.4218 73.0658 -6.9547 0.0000 -0.0000 0.0000 84.1279 7.6571 77.0463 -65.5567 57.6174 -39.0008 0.0000 -0.0000 -11.8437 -51.5972 36.2684 -36.7340 7.1250 -0.0000 -0.0000 -9.0937 19.2437 -11.6993
-36.3642 15.8890 0.8143 -177.7120 66.9133 -175.9540 0.0000 0.0000 0.0000 -11.3684 -10.3138 -14.3505 2.6548 10.1140 29.3468 0.4610 -1.0013 -12.5164 0.9163 -6.0992 -17.0724 0.0000 0.0000 0.0000 20.6133 2.9127 -12.8257 -3.8527 -11.9618 35.5968 -1.0491 -16.2983 -31.1728 -0.0530 -1.4862 4.0876 -2.0151 0.3412 9.2312 1.1147 0.8757 8.8624 2.2560 0.5323 4.0293 -15.0621 -12.3851 3.1165 29.0899 -15.5872 -10.0026 11.3179 -8.2228 0.4610 0.0000 -0.0000 0.0000 -87.4755 0.8923 50.2357 75.4235 -59.1817 -47.4111 -0.0000 0.0000 -34.4496 28.9425 39.5286 19.3902 -7.1250 0.0000 -0.0000 -10.9417 73.0474 -7.2994 0.0000 -0.0000 0.0000 84.1332 7.6192 77.2480 -65.5656 57.6193 -39.0083 0.0000 -0.0000 -12.3721 -52.1531 36.7883 -37.6230 7.1250 -0.0000 -0.0000 -9.1736 20.1120 -11.8870
-36.3698 15.8863 0.8103 -177.5710 66.8255 -175.7640 0.0000 0.0000 0.0000 -11.3006 -10.3406 -14.6063 2.6969 10.1875 29.5860 0.4646 -1.0711 -12.5481 0.9560 -6.2262 -17.4420 0.0000 0.0000 0.0000 20.6719 2.8600 -12.8814 -3.8277 -11.9276 35.4763 -1.0527 -16.2994 -31.1974 -0.0612 -1.5957 4.3896 -2.0224 0.3403 9.3226 1.1977 0.8799 8.9226 2.3463 0.5344 4.0425 -15.2693 -12.3246 3.2054 29.3398 -15.4679 -10.2449 11.4703 -8.1792 0.4000 0.0000 0.0000 0.0000 -87.3828 1.0083 50.2602 75.7437 -59.2179 -47.6861 -0.0000 0.0000 -34.5083 29.0153 39.6937 19.5067 -7.1250 0.0000 -0.0000 -11.0650 73.2315 -7.4264 0.0000 0.0000 0.0000 83.9838 7.6408 77.4401 -65.5447 57.6150 -38.9906 0.0000 -0.0000 -12.5388 -52.6488 37.3969 -38.5115 7.1250 -0.0000 -0.0000 -9.1836 21.0384 -11.9857
-36.3758 15.8827 0.8058 -177.3370 66.7047 -175.4350 0.0000 0.0000 0.0000 -11.1681 -10.2933 -14.9258 2.7251 10.2362 29.7451 0.4619 -1.2934 -12.4544 0.7348 -5.4763 -15.2722 0.0000 0.0000 0.0000 20.7668 2.8400 -13.0161 -3.8187 -11.9152 35.4326 -1.0588 -16.3871 -31.3235 -0.0669 -1.6682 4.5895 -2.0647 0.3390 9.3952 1.3559 0.8733 8.9155 2.5344 0.5254 3.9936 -15.3718 -12.3335 3.4227 29.3921 -15.4515 -10.5521 11.5372 -8.1987 0.2895 -0.0000 -0.0000 0.0000 -87.3701 1.2590 50.3183 76.1306 -59.2605 -48.0186 -0.0000 0.0000 -34.4510 28.8912 39.7610 19.4401 -7.1250 0.0000 -0.0000 -11.3493 73.2528 -7.6237 -0.0000 -0.0000 0.0000 83.7639 7.6125 77.6664 -65.5325 57.6125 -38.9803 0.0000 -0.0000 -12.6659 -52.7940 37.4249 -38.6762 7.1250 -0.0000 -0.0000 -9.2433 21.1516 -12.0754
-36.3813 15.8836 0.8012 -177.1570 66.5988 -175.1810 0.0000 0.0000 0.0000 -11.0786 -10.3765 -15.0950 2.7383 10.2589 29.8193 0.4613 -1.4182 -12.4164 0.6094 -4.9967 -13.8993 0.0000 0.0000 0.0000 20.8320 2.8491 -13.1386 -3.8243 -11.9228 35.4595 -1.0548 -16.5076 -31.4189 -0.0680 -1.6818 4.6271 -2.0038 0.3674 9.5182 1.4127 0.9139 8.9036 2.5551 0.5495 3.9106 -15.2900 -12.3985 3.5617 29.3616 -15.5181 -10.7340 11.5231 -8.2514 0.2193 -0.0000 0.0000 0.0000 -87.2577 1.3411 50.4916 76.1928 -59.2673 -48.0720 -0.0000 0.0000 -34.4113 28.9482 39.7103 19.4633 -7.1250 0.0000 -0.0000 -11.1903 73.2242 -7.5093 -0.0000 0.0000 0.0000 83.6558 7.4822 78.4742 -65.6592 57.6385 -39.0874 0.0000 -0.0000 -15.6504 -53.8904 37.8595 -40.0750 7.1250 -0.0000 -0.0000 -9.6029 22.2491 -12.6560
-36.3884 15.8758 0.7951 -177.4460 66.4679 -175.4400 0.0000 0.0000 0.0000 -11.2015 -10.7637 -15.0026 2.7469 10.2737 29.8676 0.4784 -1.7925 -12.5691 0.1531 -2.5216 -6.9495 0.0000 0.0000 0.0000 20.6954 2.8936 -13.1638 -3.8347 -11.9371 35.5099 -1.0560 -16.6314 -31.5509 -0.0752 -1.7696 4.8693 -1.9720 0.4044 9.7414 1.3034 0.9700 8.9127 2.4166 0.5868 3.7962 -15.1461 -12.4433 3.6979 29.4685 -15.5442 -10.8773 11.5504 -8.2858 0.1610 0.0000 0.0000 0.0000 -86.9463 1.3858 50.7011 76.1924 -59.2672 -48.0717 -0.0000 0.0000 -34.4888 29.2799 39.5325 19.6416 -7.1250 0.0000 -0.0000 -10.4355 73.1690 -6.9872 0.0000 0.0000 0.0000 83.8650 7.4120 78.2746 -65.6383 57.6342 -39.0697 0.0000 -0.0000 -15.2471 -53.6916 37.6491 -39.7361 7.1250 -0.0000 -0.0000 -9.5903 21.9121 -12.6087
